Coordinates
version=1
nRows=28
nColumns=34
inDegrees=no

Units are S.I. units (second, meters, Newtons, ...)
If the header above contains a line with 'inDegrees', this indicates whether rotational values are in degrees (yes) or radians (no).

endheader
time	pelvis_tilt	pelvis_list	pelvis_rotation	pelvis_tx	pelvis_ty	pelvis_tz	hip_flexion_r	hip_adduction_r	hip_rotation_r	knee_angle_r	ankle_angle_r	subtalar_angle_r	mtp_angle_r	hip_flexion_l	hip_adduction_l	hip_rotation_l	knee_angle_l	ankle_angle_l	subtalar_angle_l	mtp_angle_l	lumbar_extension	lumbar_bending	lumbar_rotation	arm_flex_r	arm_add_r	arm_rot_r	elbow_flex_r	pro_sup_r	arm_flex_l	arm_add_l	arm_rot_l	elbow_flex_l	pro_sup_l
9.66	-0.287109	-0.0233939	-0.00167047	-0.27557	0.815488	-0.58818	0.913535	-0.172568	-0.11864	0.915647	0.380409	-0.0805745	-0.14152	0.92281	-0.274946	-0.187808	0.936633	0.437058	0.115597	-0.141521	-0.301271	0.0294132	-0.0173359	0.450845	-0.245125	-0.0813482	1.68797	1.34086	0.451598	-0.180916	-0.317446	1.78286	1.43874
9.67	-0.281492	-0.0246319	0.00146859	-0.273108	0.820757	-0.588469	0.888519	-0.171368	-0.123887	0.89048	0.372475	-0.0808546	-0.14152	0.899406	-0.270586	-0.191042	0.911705	0.429663	0.117604	-0.141521	-0.294183	0.0310057	-0.0187803	0.4318	-0.242552	-0.0855595	1.67489	1.34214	0.441803	-0.180375	-0.311583	1.76868	1.4366
9.68	-0.275942	-0.0258279	0.00436093	-0.270657	0.825905	-0.58873	0.863701	-0.169846	-0.12893	0.865227	0.364526	-0.0809738	-0.14152	0.876069	-0.26646	-0.194392	0.886687	0.422251	0.119821	-0.141521	-0.287099	0.0323623	-0.0197643	0.413023	-0.239824	-0.0907758	1.66258	1.34457	0.432743	-0.180117	-0.304675	1.75449	1.43344
9.69	-0.270446	-0.0269873	0.0069017	-0.268216	0.830922	-0.588949	0.839116	-0.1679	-0.133681	0.839936	0.356529	-0.0810112	-0.14152	0.8528	-0.262664	-0.197892	0.861648	0.414879	0.122267	-0.141521	-0.280035	0.0334451	-0.0201335	0.394517	-0.236954	-0.0970253	1.65101	1.3479	0.424402	-0.180189	-0.296639	1.74021	1.42958
9.7	-0.265	-0.0280982	0.00904338	-0.265787	0.835798	-0.58912	0.814813	-0.165514	-0.138103	0.814674	0.348462	-0.080988	-0.14152	0.829617	-0.259219	-0.201538	0.836657	0.407591	0.124921	-0.141521	-0.272998	0.0342295	-0.0198313	0.376303	-0.233972	-0.104242	1.64017	1.35164	0.416728	-0.180633	-0.287499	1.72584	1.42538
9.71	-0.259611	-0.0291409	0.0108022	-0.26337	0.840523	-0.589243	0.790844	-0.162753	-0.142224	0.789526	0.340336	-0.0808529	-0.14152	0.806567	-0.256067	-0.205269	0.811777	0.400409	0.127708	-0.141521	-0.265988	0.0347153	-0.0189129	0.358432	-0.230926	-0.112256	1.63006	1.3551	0.40963	-0.181486	-0.277383	1.71139	1.42122
9.72	-0.254292	-0.0300922	0.0122555	-0.260968	0.845088	-0.589328	0.767253	-0.159759	-0.146148	0.764578	0.332208	-0.0804814	-0.14152	0.783716	-0.253085	-0.208963	0.787065	0.393336	0.130497	-0.141521	-0.258999	0.0349296	-0.017537	0.340982	-0.227884	-0.120799	1.62065	1.35769	0.402994	-0.182767	-0.266494	1.69695	1.41738
9.73	-0.249061	-0.0309268	0.0135267	-0.258583	0.849484	-0.58939	0.74407	-0.156723	-0.150035	0.739918	0.324179	-0.079693	-0.14152	0.761141	-0.250098	-0.212452	0.762568	0.386352	0.133109	-0.141521	-0.252022	0.0349198	-0.0159365	0.324054	-0.22493	-0.12954	1.61191	1.35897	0.396689	-0.184483	-0.255046	1.68264	1.41395
9.74	-0.243936	-0.0316182	0.0147589	-0.256217	0.853704	-0.589449	0.721316	-0.153854	-0.154065	0.715625	0.316387	-0.0782851	-0.14152	0.738921	-0.246914	-0.215545	0.738325	0.379429	0.135334	-0.141521	-0.245041	0.0347402	-0.0143719	0.30776	-0.222152	-0.138117	1.60378	1.35872	0.390582	-0.186624	-0.243224	1.6686	1.41091
9.75	-0.238931	-0.0321451	0.0160817	-0.253872	0.857744	-0.589525	0.698999	-0.151333	-0.158401	0.691767	0.308974	-0.076071	-0.14152	0.717121	-0.24336	-0.218055	0.714362	0.372529	0.136957	-0.141521	-0.238043	0.0344423	-0.0130806	0.292212	-0.219641	-0.146175	1.59615	1.35693	0.384557	-0.18917	-0.23116	1.65492	1.40809
9.76	-0.23405	-0.0324985	0.0175825	-0.251547	0.861602	-0.589631	0.67712	-0.149276	-0.163159	0.668399	0.302064	-0.0729099	-0.14152	0.695785	-0.239323	-0.21983	0.690702	0.365624	0.137793	-0.141521	-0.231018	0.0340698	-0.0122353	0.277509	-0.217472	-0.153396	1.5889	1.35379	0.378519	-0.192086	-0.218942	1.64165	1.40533
9.77	-0.22929	-0.0326841	0.0192906	-0.249244	0.865275	-0.589775	0.65568	-0.14772	-0.168387	0.645566	0.295735	-0.068734	-0.14152	0.67493	-0.234774	-0.22079	0.667374	0.3587	0.137734	-0.141521	-0.223959	0.0336549	-0.0119249	0.26373	-0.215708	-0.159518	1.58188	1.34964	0.372396	-0.195322	-0.20664	1.62879	1.40255
9.78	-0.224642	-0.0327198	0.021172	-0.246961	0.868765	-0.589956	0.634693	-0.146618	-0.174048	0.623303	0.290003	-0.063572	-0.14152	0.654561	-0.22978	-0.220953	0.644422	0.351771	0.136786	-0.141521	-0.216863	0.0332143	-0.0121528	0.25093	-0.214388	-0.164337	1.57489	1.34492	0.366135	-0.19882	-0.194327	1.61627	1.39975
9.79	-0.220106	-0.0326311	0.0231342	-0.244698	0.872074	-0.590162	0.614188	-0.145851	-0.180012	0.601633	0.284817	-0.0575588	-0.14152	0.634669	-0.224487	-0.220451	0.621897	0.344881	0.13508	-0.141521	-0.209717	0.0327478	-0.0128463	0.239135	-0.213534	-0.167708	1.56776	1.34013	0.35969	-0.202521	-0.182103	1.60404	1.39705
9.8	-0.215686	-0.0324465	0.0250423	-0.242454	0.875203	-0.590377	0.59421	-0.145254	-0.186079	0.580559	0.280078	-0.0509205	-0.14152	0.615239	-0.219095	-0.219505	0.599852	0.338103	0.132842	-0.141521	-0.202507	0.0322407	-0.0138753	0.228341	-0.213148	-0.16955	1.56031	1.33576	0.353026	-0.206357	-0.170099	1.592	1.39465
9.81	-0.211393	-0.0321928	0.0267438	-0.240228	0.878157	-0.59058	0.574794	-0.144643	-0.192005	0.560059	0.275662	-0.0439375	-0.14152	0.596236	-0.213811	-0.218384	0.578312	0.331521	0.130343	-0.141521	-0.195226	0.0316688	-0.0150783	0.218514	-0.213211	-0.169838	1.55239	1.33217	0.346113	-0.210269	-0.158467	1.5801	1.39278
9.82	-0.207215	-0.0318904	0.0280928	-0.238018	0.880943	-0.590751	0.555938	-0.143848	-0.197545	0.540074	0.271446	-0.0369002	-0.14152	0.577582	-0.20881	-0.217362	0.557261	0.325221	0.127853	-0.141521	-0.187894	0.0310039	-0.0162861	0.209598	-0.213685	-0.168608	1.54393	1.32959	0.338938	-0.214203	-0.147346	1.56831	1.39156
9.83	-0.203106	-0.031551	0.0289684	-0.235821	0.883571	-0.590871	0.537563	-0.142733	-0.202484	0.520504	0.267333	-0.0300632	-0.14152	0.559138	-0.204215	-0.216689	0.536634	0.319271	0.12561	-0.141521	-0.180583	0.0302203	-0.0173418	0.201523	-0.214518	-0.165941	1.53487	1.32792	0.331498	-0.21812	-0.136839	1.55666	1.39094
9.84	-0.198966	-0.03118	0.0292866	-0.233636	0.886059	-0.590928	0.519501	-0.141202	-0.206668	0.501207	0.263256	-0.0236067	-0.14152	0.540698	-0.200091	-0.216577	0.516322	0.313715	0.123812	-0.141521	-0.173432	0.0293018	-0.0181142	0.194218	-0.215647	-0.161959	1.52524	1.32692	0.323814	-0.221983	-0.127003	1.54517	1.39087
9.85	-0.194659	-0.030778	0.0290057	-0.231456	0.888427	-0.590917	0.501511	-0.139208	-0.21002	0.482012	0.259182	-0.0176064	-0.14152	0.522009	-0.196448	-0.217179	0.496192	0.30857	0.122604	-0.141521	-0.166621	0.0282446	-0.0185074	0.18761	-0.217009	-0.156807	1.51509	1.32628	0.315918	-0.225751	-0.117857	1.53381	1.39155
9.86	-0.190036	-0.0303406	0.0281261	-0.229278	0.890693	-0.590834	0.483332	-0.136759	-0.212551	0.462757	0.255106	-0.0120153	-0.14152	0.502824	-0.193241	-0.218569	0.476102	0.303817	0.122067	-0.141521	-0.160333	0.0270542	-0.0184657	0.181629	-0.218548	-0.150643	1.5045	1.32568	0.307853	-0.229374	-0.109398	1.52253	1.39332
9.87	-0.184974	-0.0298563	0.0266882	-0.227097	0.892873	-0.590685	0.464737	-0.133913	-0.214356	0.443315	0.251046	-0.00667205	-0.14152	0.482945	-0.190381	-0.220734	0.455925	0.299408	0.122204	-0.141521	-0.154707	0.0257392	-0.0179773	0.1762	-0.220213	-0.143628	1.49354	1.3249	0.299657	-0.232791	-0.101615	1.51124	1.39658
9.88	-0.179398	-0.0293048	0.024772	-0.224911	0.894976	-0.590478	0.445583	-0.130789	-0.215614	0.423624	0.247043	-0.00132553	-0.14152	0.46226	-0.187734	-0.223539	0.435552	0.295248	0.122901	-0.141521	-0.149815	0.0243067	-0.0170785	0.17125	-0.221961	-0.135913	1.48232	1.32379	0.291369	-0.235937	-0.0945143	1.49985	1.40158
9.89	-0.173289	-0.0286563	0.0224896	-0.222718	0.897006	-0.590227	0.425821	-0.12755	-0.216563	0.403696	0.243153	0.00432089	-0.14152	0.440741	-0.185119	-0.226709	0.414883	0.291186	0.12388	-0.141521	-0.145656	0.0227599	-0.0158493	0.166714	-0.223752	-0.12765	1.47092	1.32233	0.283029	-0.238743	-0.0881355	1.48827	1.40851
9.9	-0.16667	-0.0278717	0.0199619	-0.220522	0.898959	-0.589949	0.405489	-0.124383	-0.217455	0.383606	0.239449	0.0105566	-0.14152	0.418414	-0.18232	-0.229825	0.393793	0.287013	0.124658	-0.141521	-0.142179	0.0210939	-0.0143897	0.162535	-0.225543	-0.118989	1.45943	1.32062	0.274676	-0.241138	-0.0825563	1.47638	1.41748
9.91	-0.159585	-0.0269044	0.0172871	-0.218322	0.900832	-0.589657	0.384675	-0.121473	-0.218501	0.363471	0.236011	0.0176189	-0.14152	0.395299	-0.179108	-0.232371	0.372118	0.282465	0.124565	-0.141521	-0.13931	0.0192933	-0.0127845	0.158653	-0.227289	-0.110092	1.44797	1.31882	0.266349	-0.24305	-0.0778882	1.46412	1.42868
9.92	-0.152065	-0.0257075	0.0145198	-0.216121	0.902623	-0.589366	0.363473	-0.118971	-0.21983	0.343429	0.232917	0.0256683	-0.14152	0.371354	-0.175268	-0.233779	0.349626	0.277241	0.1228	-0.14152	-0.136985	0.0173361	-0.01108	0.155008	-0.228948	-0.101119	1.43665	1.31709	0.258088	-0.244406	-0.0742672	1.45135	1.44253
9.93	-0.144112	-0.0242533	0.0116729	-0.213913	0.904329	-0.589082	0.341945	-0.116969	-0.221481	0.323606	0.230239	0.0347632	-0.14152	0.346457	-0.170642	-0.233505	0.32604	0.271038	0.118558	-0.14152	-0.135175	0.015211	-0.00928281	0.151533	-0.230483	-0.0922316	1.42563	1.31552	0.249932	-0.245148	-0.0718316	1.43799	1.45944
